<svg xmlns="http://www.w3.org/2000/svg" viewBox="0 0 1386.34 736.1"><defs><style>.cls-1{font-size:36px;fill:#575756;font-family:CircularStd-Book, Circular Std;}.cls-2{letter-spacing:0em;}.cls-3{letter-spacing:-0.02em;}.cls-4{letter-spacing:0em;}.cls-5{letter-spacing:0em;}.cls-6{letter-spacing:0em;}.cls-7{fill:#47398e;}.cls-8,.cls-9{fill:none;stroke-miterlimit:10;}.cls-8{stroke:#1d1d1b;stroke-width:2px;}.cls-9{stroke:#47398e;stroke-width:4px;}.cls-10,.cls-13{font-size:46px;fill:#1d1d1b;}.cls-10{font-family:CircularStd-BookItalic, Circular Std;font-style:italic;}.cls-11{letter-spacing:0.02em;}.cls-12{letter-spacing:-0.01em;}.cls-13{font-family:CircularStd-Medium, Circular Std;}.cls-14{letter-spacing:0em;}.cls-15{letter-spacing:-0.01em;}.cls-16{letter-spacing:0em;}.cls-17{letter-spacing:0em;}.cls-18{letter-spacing:0em;}.cls-19{letter-spacing:0em;}</style></defs><title>jt webbjobtech_jobs</title><g id="Lager_2" data-name="Lager 2"><g id="Lager_2-2" data-name="Lager 2"><text class="cls-1" transform="translate(541.93 645.63)">Get the whole data<tspan class="cls-2" x="308.99" y="0">s</tspan><tspan x="325.08" y="0">et and </tspan><tspan x="0" y="43.2">do what </tspan><tspan class="cls-3" x="140.15" y="43.2">y</tspan><tspan class="cls-2" x="158.25" y="43.2">o</tspan><tspan x="178.67" y="43.2">u </tspan><tspan class="cls-2" x="208.04" y="43.2">w</tspan><tspan class="cls-4" x="236.41" y="43.2">ant!</tspan></text><text class="cls-1" transform="translate(982.32 263.54)"><tspan class="cls-2">F</tspan><tspan x="19.66" y="0">ind what </tspan><tspan class="cls-3" x="168.55" y="0">y</tspan><tspan class="cls-5" x="186.66" y="0">o</tspan><tspan x="207.07" y="0">u </tspan><tspan class="cls-2" x="236.45" y="0">w</tspan><tspan x="264.82" y="0">ant, </tspan><tspan x="0" y="43.2">when </tspan><tspan class="cls-3" x="97.52" y="43.2">y</tspan><tspan class="cls-2" x="115.63" y="43.2">o</tspan><tspan x="136.04" y="43.2">u </tspan><tspan class="cls-5" x="165.42" y="43.2">w</tspan><tspan class="cls-6" x="193.79" y="43.2">ant it.</tspan></text><text class="cls-1" transform="translate(46.25 181.25)">Get in<tspan class="cls-3" x="98.17" y="0">f</tspan><tspan x="109.8" y="0">ormation ab</tspan><tspan class="cls-2" x="305.17" y="0">o</tspan><tspan x="325.58" y="0">ut </tspan><tspan x="0" y="43.2">the data.</tspan></text><circle class="cls-7" cx="946.57" cy="194.54" r="8.67"/><line class="cls-8" x1="778.02" y1="195.54" x2="923.6" y2="195.54"/><circle class="cls-7" cx="628.75" cy="515.95" r="8.67"/><line class="cls-8" x1="627.75" y1="347.4" x2="627.75" y2="492.98"/><circle class="cls-7" cx="281.65" cy="114.62" r="8.67"/><line class="cls-8" x1="450.2" y1="115.62" x2="304.62" y2="115.62"/><ellipse class="cls-7" cx="620.08" cy="24.29" rx="142.28" ry="24.29"/><ellipse class="cls-7" cx="620.08" cy="295.63" rx="142.28" ry="24.29"/><line class="cls-9" x1="480.8" y1="24.29" x2="480.8" y2="295.75"/><line class="cls-9" x1="759.2" y1="24.29" x2="759.2" y2="295.75"/><text class="cls-10" transform="translate(518.74 209.33)"><tspan class="cls-11">D</tspan><tspan class="cls-12" x="32.94" y="0">a</tspan><tspan x="58.56" y="0">tastore</tspan></text><text class="cls-13" transform="translate(541.31 143.34)">All<tspan class="cls-14" x="57.18" y="0">J</tspan><tspan x="82.11" y="0">obs</tspan></text><text class="cls-13" transform="translate(980.72 209.33)"><tspan class="cls-15">S</tspan><tspan x="27.23" y="0">ea</tspan><tspan class="cls-16" x="76.91" y="0">r</tspan><tspan x="94.25" y="0">ch A</tspan><tspan class="cls-17" x="189.66" y="0">P</tspan><tspan x="217.25" y="0">I</tspan></text><text class="cls-13" transform="translate(545.03 579.48)">D<tspan class="cls-17" x="33.21" y="0">a</tspan><tspan class="cls-18" x="57.59" y="0">t</tspan><tspan x="74.52" y="0">a</tspan><tspan class="cls-16" x="98.99" y="0">s</tspan><tspan x="119.87" y="0">et</tspan></text><text class="cls-13" transform="translate(39.05 126.41)"><tspan class="cls-17">M</tspan><tspan x="43.61" y="0">e</tspan><tspan class="cls-18" x="68.82" y="0">t</tspan><tspan class="cls-19" x="85.74" y="0">a</tspan><tspan class="cls-17" x="110.17" y="0">da</tspan><tspan class="cls-18" x="162.15" y="0">t</tspan><tspan x="179.08" y="0">a</tspan></text></g></g></svg>